<svg width="247" height="127" viewBox="0 0 247 127" fill="none" xmlns="http://www.w3.org/2000/svg">
<path d="M205.165 74H195.09L224.34 27.85H234.415L205.165 74ZM231.945 74.52C228.392 74.52 225.358 73.2633 222.845 70.75C220.375 68.2367 219.14 65.225 219.14 61.715C219.14 58.1617 220.375 55.15 222.845 52.68C225.358 50.1667 228.392 48.91 231.945 48.91C235.455 48.91 238.467 50.1667 240.98 52.68C243.493 55.15 244.75 58.1617 244.75 61.715C244.75 65.225 243.493 68.2367 240.98 70.75C238.467 73.2633 235.455 74.52 231.945 74.52ZM228.695 64.965C229.605 65.875 230.688 66.33 231.945 66.33C233.202 66.33 234.263 65.875 235.13 64.965C235.997 64.055 236.43 62.9717 236.43 61.715C236.43 60.4583 235.997 59.375 235.13 58.465C234.263 57.555 233.202 57.1 231.945 57.1C230.688 57.1 229.605 57.555 228.695 58.465C227.828 59.375 227.395 60.4583 227.395 61.715C227.395 62.9717 227.828 64.055 228.695 64.965ZM197.56 52.94C194.007 52.94 190.973 51.6833 188.46 49.17C185.99 46.6567 184.755 43.645 184.755 40.135C184.755 36.5817 185.99 33.57 188.46 31.1C190.973 28.5867 194.007 27.33 197.56 27.33C201.07 27.33 204.082 28.5867 206.595 31.1C209.108 33.57 210.365 36.5817 210.365 40.135C210.365 43.645 209.108 46.6567 206.595 49.17C204.082 51.6833 201.07 52.94 197.56 52.94ZM197.56 44.75C198.817 44.75 199.878 44.295 200.745 43.385C201.612 42.475 202.045 41.3917 202.045 40.135C202.045 38.8783 201.612 37.795 200.745 36.885C199.878 35.975 198.817 35.52 197.56 35.52C196.26 35.52 195.177 35.975 194.31 36.885C193.443 37.7517 193.01 38.835 193.01 40.135C193.01 41.435 193.443 42.54 194.31 43.45C195.177 44.3167 196.26 44.75 197.56 44.75Z" fill="white"/>
<path d="M18.18 62.44V58H5.13V62.44H0.84V53.44H1.2C3 53.44 3.9 51.54 3.9 47.74V36.7H19.71V53.44H22.47V62.44H18.18ZM8.7 41.26V48.13C8.7 50.31 8.34 52.08 7.62 53.44H14.91V41.26H8.7ZM30.5016 51.85C31.7216 53.11 33.1916 53.74 34.9116 53.74C36.6316 53.74 38.0916 53.11 39.2916 51.85C40.4916 50.59 41.0916 49.09 41.0916 47.35C41.0916 45.61 40.4916 44.11 39.2916 42.85C38.0916 41.59 36.6316 40.96 34.9116 40.96C33.1916 40.96 31.7216 41.59 30.5016 42.85C29.3016 44.11 28.7016 45.61 28.7016 47.35C28.7016 49.09 29.3016 50.59 30.5016 51.85ZM42.6816 55.12C40.5416 57.28 37.9516 58.36 34.9116 58.36C31.8716 58.36 29.2716 57.29 27.1116 55.15C24.9716 52.99 23.9016 50.39 23.9016 47.35C23.9016 44.31 24.9716 41.72 27.1116 39.58C29.2716 37.42 31.8716 36.34 34.9116 36.34C37.9516 36.34 40.5416 37.42 42.6816 39.58C44.8416 41.74 45.9216 44.33 45.9216 47.35C45.9216 50.37 44.8416 52.96 42.6816 55.12Z" fill="white"/>
<path d="M114.9 85.1V100H65.9V94.9C65.9 92.9667 66.1 91.1 66.5 89.3C66.9 87.4333 67.3667 85.8333 67.9 84.5C68.4333 83.1 69.2667 81.6667 70.4 80.2C71.5333 78.7333 72.5 77.5333 73.3 76.6C74.1 75.6667 75.3 74.5667 76.9 73.3C78.5 71.9667 79.7333 71 80.6 70.4C81.4667 69.7333 82.8333 68.7667 84.7 67.5C86.5667 66.1667 87.8667 65.2333 88.6 64.7C95.7333 59.6333 99.3 55.1 99.3 51.1C99.3 48.6333 98.5667 46.6333 97.1 45.1C95.7 43.5 93.6333 42.7 90.9 42.7C88.0333 42.7 85.7 43.5667 83.9 45.3C82.1667 47.0333 81.3 49.1333 81.3 51.6H66.2C66.2 44.6667 68.5667 38.9667 73.3 34.5C78.1 30.0333 84.1333 27.8 91.4 27.8C97.8 27.8 103.233 29.7667 107.7 33.7C112.167 37.5667 114.4 43 114.4 50C114.4 54.0667 113.7 57.7 112.3 60.9C110.9 64.1 109.267 66.6667 107.4 68.6C105.533 70.5333 103 72.7 99.8 75.1C99.6667 75.1667 98.3333 76.0333 95.8 77.7C93.3333 79.3 91.4333 80.6667 90.1 81.8C88.7667 82.9333 87.8 84.0333 87.2 85.1H114.9ZM148.415 101.1C141.682 101.1 135.782 99.0333 130.715 94.9C125.648 90.7 122.982 85.4 122.715 79H138.315C138.848 81.1333 140.048 82.8667 141.915 84.2C143.782 85.5333 145.948 86.2 148.415 86.2C151.548 86.2 153.982 85.3 155.715 83.5C157.448 81.7 158.315 79.3333 158.315 76.4C158.315 73.6 157.382 71.2667 155.515 69.4C153.648 67.5333 151.315 66.6 148.515 66.6C145.915 66.6 143.715 67.3 141.915 68.7C140.115 70.0333 138.815 71.8 138.015 74L124.915 69.9L133.115 29H168.015V43.6H144.715L142.315 54.9C144.648 53.6333 147.682 53 151.415 53C158.082 53 163.415 55.2667 167.415 59.8C171.415 64.3333 173.415 70.2333 173.415 77.5C173.415 84.8333 171.148 90.6 166.615 94.8C162.148 99 156.082 101.1 148.415 101.1Z" fill="white"/>
<rect y="74" width="45" height="10" fill="white"/>
</svg>
