<svg xmlns="http://www.w3.org/2000/svg" width="24" height="24" viewBox="0 0 24 24" fill="none">
<path d="M3.5 7.5L20.5 7.5C20.8978 7.5 21.2794 7.34197 21.5607 7.06066C21.842 6.77936 22 6.39783 22 6C22 5.60218 21.842 5.22065 21.5607 4.93934C21.2794 4.65804 20.8978 4.5 20.5 4.5L3.5 4.5C3.10218 4.5 2.72064 4.65804 2.43934 4.93934C2.15804 5.22064 2 5.60218 2 6C2 6.39782 2.15803 6.77936 2.43934 7.06066C2.72064 7.34197 3.10217 7.5 3.5 7.5ZM20.5 10.5L3.5 10.5C3.10217 10.5 2.72064 10.658 2.43934 10.9393C2.15803 11.2206 2 11.6022 2 12C2 12.3978 2.15803 12.7794 2.43934 13.0607C2.72064 13.342 3.10217 13.5 3.5 13.5L20.5 13.5C20.8978 13.5 21.2794 13.342 21.5607 13.0607C21.842 12.7794 22 12.3978 22 12C22 11.6022 21.842 11.2206 21.5607 10.9393C21.2794 10.658 20.8978 10.5 20.5 10.5ZM20.5 16.5L3.5 16.5C3.10217 16.5 2.72064 16.658 2.43934 16.9393C2.15803 17.2206 2 17.6022 2 18C2 18.3978 2.15803 18.7794 2.43934 19.0607C2.72064 19.342 3.10217 19.5 3.5 19.5L20.5 19.5C20.8978 19.5 21.2794 19.342 21.5607 19.0607C21.842 18.7794 22 18.3978 22 18C22 17.6022 21.842 17.2206 21.5607 16.9393C21.2794 16.658 20.8978 16.5 20.5 16.5Z" fill="white"/>
</svg>