<svg width="170" height="20" viewBox="0 0 170 20" fill="none" xmlns="http://www.w3.org/2000/svg">
<path d="M15.1232 18.1337C15.2005 18.1998 15.2832 18.2659 15.3645 18.3306C13.7425 19.4223 11.8368 20.0032 9.88829 20C8.3453 20 6.82372 19.6348 5.44527 18.9336C4.06681 18.2325 2.86973 17.2149 1.94977 15.9622C1.02982 14.7094 0.412512 13.2564 0.147236 11.7192C-0.11804 10.1821 -0.0239254 8.60345 0.422051 7.10966C0.868028 5.61586 1.65349 4.24834 2.71561 3.11647C3.77774 1.98459 5.08705 1.11979 6.53882 0.591213C7.99058 0.06264 9.54452 -0.115029 11.0763 0.0724165C12.6082 0.259862 14.0753 0.807221 15.3605 1.67071C15.2805 1.73948 15.2005 1.80286 15.1405 1.87298C13.9855 2.88084 13.0588 4.12859 12.4235 5.53125C11.7882 6.93391 11.4592 8.45855 11.459 10.0013C11.4594 11.543 11.7866 13.0666 12.4187 14.4695C13.0508 15.8724 13.973 17.1219 15.1232 18.1337ZM22.1115 0.00135013C20.0848 0.00135013 18.2034 0.616236 16.6379 1.67071C16.7179 1.73948 16.798 1.80286 16.858 1.87298C18.013 2.88084 18.9397 4.12859 19.575 5.53125C20.2103 6.93391 20.5393 8.45855 20.5395 10.0013C20.5386 11.5429 20.2111 13.0664 19.5791 14.4692C18.947 15.872 18.025 17.1216 16.8753 18.1337C16.798 18.1998 16.7153 18.2659 16.6339 18.3306C18.2559 19.4227 20.1617 20.0036 22.1102 20C23.4089 20.0005 24.6949 19.7423 25.8949 19.24C27.0948 18.7378 28.1852 18.0013 29.1036 17.0728C30.022 16.1443 30.7505 15.0418 31.2475 13.8285C31.7445 12.6151 32.0002 11.3147 32 10.0013C31.9996 7.34929 30.9577 4.80596 29.1033 2.93067C27.249 1.05539 24.734 0.00170767 22.1115 0.00135013ZM15.9992 2.14536C14.8213 3.07885 13.8692 4.27147 13.2151 5.63269C12.561 6.9939 12.2222 8.48793 12.2244 10.0013C12.2218 11.515 12.5604 13.0094 13.2145 14.3709C13.8686 15.7324 14.821 16.9252 15.9992 17.8587C17.1772 16.9249 18.1294 15.732 18.7834 14.3706C19.4375 13.0092 19.7763 11.5149 19.7741 10.0013C19.7763 8.48793 19.4375 6.9939 18.7834 5.63269C18.1293 4.27147 17.1772 3.07885 15.9992 2.14536Z" fill="#3B3C40"/>
<path d="M65.9833 2.28487L59.4375 17.7585H55.1667L51.9458 5.40808C51.75 4.64843 51.5812 4.36976 50.9854 4.0498C50.0146 3.52754 48.4104 3.03832 47 2.73281L47.0958 2.28487H53.9708C54.4201 2.28442 54.8547 2.44312 55.1963 2.73232C55.5378 3.02152 55.7638 3.42217 55.8333 3.86195L57.5354 12.8167L61.7396 2.28487H65.9833ZM82.7188 12.7073C82.7354 8.62211 77.0187 8.39711 77.0583 6.57231C77.0708 6.01703 77.6042 5.42666 78.7708 5.27597C80.1381 5.1473 81.5151 5.38694 82.7562 5.96955L83.4646 2.6874C82.2562 2.23728 80.9764 2.00449 79.6854 2C75.6917 2 72.8813 4.10554 72.8562 7.11728C72.8312 9.3446 74.8625 10.5852 76.3937 11.3283C77.9688 12.0859 78.4979 12.5731 78.4896 13.2502C78.4792 14.2905 77.2354 14.7467 76.0729 14.7653C74.0417 14.7963 72.8646 14.2224 71.9229 13.7889L71.1917 17.1784C72.1354 17.6078 73.8771 17.9835 75.6833 18C79.9271 18 82.7042 15.9234 82.7188 12.7073ZM93.2625 17.7585H97L93.7396 2.28487H90.2896C89.921 2.28148 89.5598 2.38791 89.253 2.59035C88.9461 2.79279 88.7078 3.08191 88.5687 3.42021L82.5083 17.7585H86.75L87.5938 15.4465H92.7771L93.2625 17.7585ZM88.7562 12.2758L90.8812 6.46497L92.1062 12.2758H88.7562ZM71.7563 2.28487L68.4167 17.7585H64.375L67.7187 2.28487H71.7563Z" fill="#3B3C40"/>
<path fill-rule="evenodd" clip-rule="evenodd" d="M117.289 2.00273C117.8 1.9996 119.319 1.8593 119.962 4.08611C120.396 5.58611 121.086 8.04318 122.033 11.4573H122.419C123.435 7.85789 124.133 5.40082 124.512 4.08611C125.162 1.83611 126.787 2.00277 127.437 2.00277L132.452 2.00278V18.0027H127.341V8.5737H126.998L124.149 18.0027H120.303L117.454 8.56671H117.111V18.0027H112V2.00278L117.289 2.00273ZM139.792 2.00278V11.4388H140.2L143.666 3.67964C144.339 2.13553 145.773 2.00278 145.773 2.00278H150.719V18.0028H145.501V8.56671H145.093L141.695 16.3259C141.022 17.863 139.52 18.0028 139.52 18.0028H134.574V2.00278H139.792ZM168.755 9.60608C168.027 11.7216 165.741 13.2366 163.21 13.2366H157.738V18.0028H152.776V9.60608H168.755Z" fill="#3B3C40"/>
<path fill-rule="evenodd" clip-rule="evenodd" d="M163.449 2.00293H152.516C152.776 5.56507 155.767 8.6145 158.863 8.6145H169.099C169.69 5.65394 167.656 2.00293 163.449 2.00293Z" fill="#9293B0"/>
</svg>
