<svg xmlns="http://www.w3.org/2000/svg" width="24" height="24" viewBox="0 0 24 24" fill="none">
<path d="M3.42871 4.74603C3.42871 3.78172 4.21044 3 5.17474 3H18.8255C19.7898 3 20.5716 3.78172 20.5716 4.74603H3.42871Z" fill="#E50E78"/>
<path d="M2.47656 7.44525C2.47656 6.48094 3.25829 5.69922 4.22259 5.69922H19.7781C20.7425 5.69922 21.5242 6.48094 21.5242 7.44525H2.47656Z" fill="#E50E78"/>
<path d="M3 10.3975C3 9.84518 3.44771 9.39746 4 9.39746H20C20.5523 9.39746 21 9.84518 21 10.3975V18.6197C21 19.172 20.5523 19.6197 20 19.6197H4C3.44772 19.6197 3 19.172 3 18.6197V10.3975Z" stroke="#E50E78" stroke-width="2"/>
</svg>