<svg width="20" height="20" viewBox="0 0 20 20" fill="none" xmlns="http://www.w3.org/2000/svg">
<g id="Group">
<path id="id_101" opacity="0.8" d="M9.99977 13.0435C6.40368 13.0435 3.47803 10.1178 3.47803 6.52174C3.47803 2.92565 6.40368 0 9.99977 0C13.5959 0 16.5215 2.92565 16.5215 6.52174C16.5215 10.1178 13.5959 13.0435 9.99977 13.0435Z" fill="#A536FF"/>
<path id="id_102" opacity="0.8" d="M6.52174 19.9995C2.92565 19.9995 0 17.0739 0 13.4778C0 9.88171 2.92565 6.95605 6.52174 6.95605C10.1178 6.95605 13.0435 9.88171 13.0435 13.4778C13.0435 17.0739 10.1178 19.9995 6.52174 19.9995Z" fill="#FF4345"/>
<path id="id_103" opacity="0.8" d="M13.4783 19.9995C9.88219 19.9995 6.95654 17.0739 6.95654 13.4778C6.95654 9.88171 9.88219 6.95605 13.4783 6.95605C17.0744 6.95605 20 9.88171 20 13.4778C20 17.0739 17.0744 19.9995 13.4783 19.9995Z" fill="#FF9935"/>
</g>
</svg>
