<svg width="18" height="18" viewBox="0 0 18 18" fill="none" xmlns="http://www.w3.org/2000/svg">
<g id="Group 48097067">
<path id="id_101" d="M12.4698 0.710032L10.9098 4.45003C10.3112 4.19975 9.66874 4.07086 9.01984 4.07086C8.37095 4.07086 7.72852 4.19975 7.12984 4.45003L5.58984 0.670033C6.68204 0.220348 7.85274 -0.00769296 9.03386 -0.000825965C10.215 0.00604103 11.383 0.247678 12.4698 0.710032Z" fill="#F43434"/>
<path id="id_102" d="M17.2898 12.4698L13.5498 10.9098C13.8001 10.3112 13.929 9.66874 13.929 9.01984C13.929 8.37095 13.8001 7.72852 13.5498 7.12984L17.3098 5.58984C17.7627 6.68071 17.9941 7.85073 17.9907 9.03185C17.9872 10.213 17.749 11.3816 17.2898 12.4698Z" fill="#DAE234"/>
<path id="id_103" d="M17.3202 5.5902L13.5702 7.1302C13.3272 6.52791 12.9669 5.97994 12.5102 5.51814C12.0536 5.05633 11.5097 4.68992 10.9102 4.4402L12.4802 0.700195C13.5708 1.15378 14.5603 1.81968 15.3912 2.65918C16.2221 3.49867 16.8778 4.49499 17.3202 5.5902Z" fill="#E08B36"/>
<path id="id_104" d="M12.4101 17.3202L10.8701 13.5702C11.4724 13.3272 12.0204 12.9669 12.4822 12.5102C12.944 12.0536 13.3104 11.5097 13.5601 10.9102L17.3101 12.4802C16.8554 13.5717 16.1879 14.5618 15.3467 15.3928C14.5054 16.2237 13.5072 16.8789 12.4101 17.3202Z" fill="#52EF7A"/>
<path id="id_105" d="M5.53027 17.2898L7.09027 13.5498C7.68895 13.8001 8.33138 13.929 8.98027 13.929C9.62916 13.929 10.2716 13.8001 10.8703 13.5498L12.4103 17.3098C11.3194 17.7627 10.1494 17.9941 8.96827 17.9907C7.78714 17.9872 6.61849 17.749 5.53027 17.2898Z" fill="#54DBED"/>
<path id="id_106" d="M0.679688 12.4101L4.42969 10.8701C4.67267 11.4724 5.03296 12.0204 5.48962 12.4822C5.94627 12.944 6.49016 13.3104 7.08969 13.5601L5.51969 17.3001C4.42909 16.8465 3.43955 16.1806 2.60865 15.3411C1.77774 14.5016 1.12204 13.5053 0.679688 12.4101Z" fill="#5286EF"/>
<path id="id_107" d="M0.710032 5.53027L4.45003 7.09027C4.19975 7.68895 4.07086 8.33138 4.07086 8.98027C4.07086 9.62916 4.19975 10.2716 4.45003 10.8703L0.670033 12.4103C0.220348 11.3181 -0.00769296 10.1474 -0.000825965 8.96626C0.00604103 7.78513 0.247678 6.61716 0.710032 5.53027Z" fill="#5058F2"/>
<path id="id_108" d="M5.5902 0.679688L7.1302 4.42969C6.52791 4.67267 5.97994 5.03296 5.51814 5.48962C5.05633 5.94627 4.68992 6.49016 4.4402 7.08969L0.700195 5.51969C1.15378 4.42909 1.81968 3.43955 2.65918 2.60865C3.49867 1.77774 4.49499 1.12204 5.5902 0.679688Z" fill="#EA5653"/>
</g>
</svg>
