<svg width="30" height="30" viewBox="0 0 30 30" fill="none" xmlns="http://www.w3.org/2000/svg">
<g clip-path="url(#clip0_2_4530)">
<path d="M12 20L19.785 15.5L12 11V20ZM29.34 8.255C29.535 8.96 29.67 9.905 29.76 11.105C29.865 12.305 29.91 13.34 29.91 14.24L30 15.5C30 18.785 29.76 21.2 29.34 22.745C28.965 24.095 28.095 24.965 26.745 25.34C26.04 25.535 24.75 25.67 22.77 25.76C20.82 25.865 19.035 25.91 17.385 25.91L15 26C8.715 26 4.8 25.76 3.255 25.34C1.905 24.965 1.035 24.095 0.66 22.745C0.465 22.04 0.33 21.095 0.24 19.895C0.135 18.695 0.0899999 17.66 0.0899999 16.76L0 15.5C0 12.215 0.24 9.8 0.66 8.255C1.035 6.905 1.905 6.035 3.255 5.66C3.96 5.465 5.25 5.33 7.23 5.24C9.18 5.135 10.965 5.09 12.615 5.09L15 5C21.285 5 25.2 5.24 26.745 5.66C28.095 6.035 28.965 6.905 29.34 8.255Z" fill="#3B3C40"/>
</g>
<defs>
<clipPath id="clip0_2_4530">
<rect width="30" height="30" fill="white"/>
</clipPath>
</defs>
</svg>
