<svg width="24" height="24" viewBox="0 0 24 24" fill="none" xmlns="http://www.w3.org/2000/svg">
<g id="icons">
<path id="Vector" d="M11.5923 4.24454V14.1257H7.08136C5.99892 14.1257 4.96081 13.6957 4.1954 12.9303C3.43 12.1649 3 11.1268 3 10.0444V8.3259C3 7.24345 3.43 6.20534 4.1954 5.43994C4.96081 4.67454 5.99892 4.24454 7.08136 4.24454H11.5923ZM20.848 2.2829C20.6547 2.14383 20.4311 2.05269 20.1957 2.01699C19.9603 1.98128 19.7197 2.00204 19.4939 2.07755L12.4481 4.42412V13.9462L19.4939 16.2927C19.647 16.3443 19.8075 16.3704 19.969 16.3701C20.1665 16.3703 20.3621 16.3316 20.5446 16.2562C20.7272 16.1807 20.893 16.0701 21.0328 15.9305C21.1725 15.7909 21.2833 15.6252 21.359 15.4427C21.4346 15.2603 21.4735 15.0647 21.4735 14.8673V3.50302C21.4734 3.26463 21.4166 3.02969 21.3078 2.81756C21.1991 2.60543 21.0415 2.42218 20.848 2.2829ZM12.5805 19.9513C12.2651 20.3545 11.8428 20.6609 11.3617 20.8357C10.8807 21.0105 10.3602 21.0467 9.85958 20.9401C9.35896 20.8335 8.89834 20.5885 8.5302 20.2329C8.16206 19.8773 7.9012 19.4255 7.77734 18.9289L6.78922 14.9678C6.88591 14.9821 6.98367 14.9878 7.08136 14.985H12.4172L13.0702 17.6056C13.1723 18.0081 13.1812 18.4286 13.0963 18.8351C13.0114 19.2415 12.835 19.6233 12.5805 19.9513Z" fill="#FF9935"/>
</g>
</svg>
