<svg xmlns="http://www.w3.org/2000/svg" width="25" height="24" viewBox="0 0 25 24" fill="none">
  <path d="M21.8772 17.1636C21.71 18.4339 21.0862 19.6 20.1221 20.4439C19.158 21.2879 17.9197 21.7521 16.6384 21.7498C9.19469 21.7498 3.13844 15.6936 3.13844 8.24981C3.13614 6.96852 3.60033 5.73021 4.44431 4.76615C5.28829 3.80209 6.45435 3.17822 7.72469 3.01106C8.04592 2.97184 8.37123 3.03756 8.65205 3.19841C8.93287 3.35926 9.15413 3.60662 9.28281 3.90356L11.2628 8.32387V8.33512C11.3613 8.56242 11.402 8.81059 11.3812 9.05744C11.3605 9.3043 11.2789 9.54217 11.1437 9.74981C11.1269 9.77512 11.1091 9.79856 11.0903 9.822L9.13844 12.1357C9.84062 13.5626 11.3331 15.042 12.7787 15.7461L15.0606 13.8045C15.083 13.7857 15.1065 13.7681 15.1309 13.752C15.3384 13.6136 15.5771 13.5292 15.8254 13.5062C16.0737 13.4833 16.3238 13.5227 16.5531 13.6207L16.5653 13.6264L20.9819 15.6054C21.2793 15.7337 21.5273 15.9547 21.6887 16.2356C21.8501 16.5164 21.9162 16.842 21.8772 17.1636Z" fill="#3B3C40"/>
</svg>