<svg width="22" height="21" viewBox="0 0 22 21" fill="none" xmlns="http://www.w3.org/2000/svg">
<g id="Group">
<path id="Vector" d="M6.39423 4.89554C6.09755 4.59862 5.6162 4.59862 5.31952 4.89554C4.21797 5.99709 3.67656 7.53161 3.8339 9.10591C3.87316 9.49809 4.20355 9.79044 4.58939 9.79044C4.61474 9.79044 4.6403 9.78915 4.66565 9.78662C5.08343 9.74483 5.38819 9.37213 5.3464 8.95463C5.23442 7.83585 5.61648 6.748 6.39423 5.97021C6.69115 5.67357 6.69115 5.19219 6.39423 4.89554Z" fill="white"/>
<path id="Vector_2" d="M9.40412 0.213867C4.61257 0.213867 0.714355 4.11208 0.714355 8.90363C0.714355 13.6952 4.61257 17.5934 9.40412 17.5934C14.1957 17.5934 18.0939 13.6952 18.0939 8.90363C18.0939 4.11208 14.1956 0.213867 9.40412 0.213867ZM9.40412 16.0733C5.45066 16.0733 2.23445 12.8571 2.23445 8.90363C2.23445 4.95017 5.45066 1.73396 9.40412 1.73396C13.3573 1.73396 16.5738 4.95017 16.5738 8.90363C16.5738 12.8571 13.3576 16.0733 9.40412 16.0733Z" fill="white"/>
<path id="Vector_3" d="M21.063 19.4878L15.5401 13.9649C15.2432 13.668 14.7623 13.668 14.4654 13.9649C14.1684 14.2616 14.1684 14.7429 14.4654 15.0396L19.9883 20.5625C20.0588 20.6332 20.1426 20.6893 20.2348 20.7275C20.327 20.7657 20.4259 20.7853 20.5257 20.7852C20.7203 20.7852 20.9146 20.711 21.063 20.5625C21.3599 20.2658 21.3599 19.7845 21.063 19.4878Z" fill="white"/>
</g>
</svg>
