<svg width="24" height="24" viewBox="0 0 24 24" fill="none" xmlns="http://www.w3.org/2000/svg">
<path d="M19.4326 6.33054C18.1126 6.19665 16.7927 6.09623 15.4645 6.02092V6.01255L15.2841 4.92469C15.1612 4.15481 14.9808 3 13.0623 3H10.9143C9.00405 3 8.82368 4.1046 8.6925 4.91632L8.52033 5.98745C7.75787 6.03766 6.9954 6.08787 6.23294 6.16318L4.56043 6.33054C4.21609 6.36402 3.97014 6.67364 4.00293 7.01674C4.03573 7.35983 4.33087 7.61088 4.67521 7.57741L6.34772 7.41004C10.6438 6.9749 14.9726 7.14226 19.3178 7.58577C19.3424 7.58577 19.3588 7.58577 19.3834 7.58577C19.695 7.58577 19.9655 7.3431 19.9983 7.01674C20.0229 6.67364 19.7769 6.36402 19.4326 6.33054Z" fill="#9293B0"/>
<path d="M17.9241 8.76581C17.7273 8.55661 17.4568 8.43945 17.178 8.43945H6.81505C6.53629 8.43945 6.25754 8.55661 6.06898 8.76581C5.88041 8.97502 5.77383 9.25954 5.79023 9.55242L6.29854 18.1382C6.38872 19.4102 6.5035 21.0001 9.36479 21.0001H14.6283C17.4896 21.0001 17.6043 19.4185 17.6945 18.1382L18.2028 9.56079C18.2192 9.25954 18.1126 8.97502 17.9241 8.76581ZM13.3575 16.8077H10.6274C10.2912 16.8077 10.0125 16.5231 10.0125 16.18C10.0125 15.8369 10.2912 15.5524 10.6274 15.5524H13.3575C13.6936 15.5524 13.9724 15.8369 13.9724 16.18C13.9724 16.5231 13.6936 16.8077 13.3575 16.8077ZM14.0462 13.4604H9.94689C9.61075 13.4604 9.332 13.1759 9.332 12.8328C9.332 12.4897 9.61075 12.2051 9.94689 12.2051H14.0462C14.3823 12.2051 14.6611 12.4897 14.6611 12.8328C14.6611 13.1759 14.3823 13.4604 14.0462 13.4604Z" fill="#9293B0"/>
</svg>
