<svg width="30" height="30" viewBox="0 0 30 30" fill="none" xmlns="http://www.w3.org/2000/svg">
<path d="M18.5853 3.33331H11.4267C4.88866 3.33331 3.3335 4.88848 3.3335 11.4148V18.5735C3.3335 25.1103 4.877 26.6666 11.415 26.6666H18.5737C25.1105 26.6666 26.6668 25.1231 26.6668 18.5851V11.4265C26.6668 4.88848 25.1233 3.33331 18.5853 3.33331ZM22.1705 19.9816H20.4683C19.8243 19.9816 19.6307 19.4601 18.4757 18.3051C17.4677 17.3333 17.0418 17.212 16.7863 17.212C16.434 17.212 16.3372 17.3088 16.3372 17.7953V19.326C16.3372 19.7401 16.203 19.9828 15.1215 19.9828C14.0719 19.9123 13.0541 19.5934 12.1519 19.0524C11.2496 18.5115 10.4889 17.7639 9.93216 16.8713C8.61053 15.2263 7.69093 13.2956 7.2465 11.2328C7.2465 10.9773 7.34333 10.7463 7.82983 10.7463H9.53083C9.96833 10.7463 10.1258 10.9411 10.2973 11.3903C11.1233 13.8216 12.5327 15.9356 13.1043 15.9356C13.3237 15.9356 13.4193 15.8388 13.4193 15.2916V12.788C13.347 11.6458 12.7403 11.549 12.7403 11.136C12.7481 11.027 12.798 10.9254 12.8795 10.8527C12.961 10.7799 13.0675 10.7418 13.1767 10.7463H15.8507C16.2158 10.7463 16.3372 10.9283 16.3372 11.3658V14.7445C16.3372 15.1096 16.4947 15.231 16.6043 15.231C16.8237 15.231 16.9928 15.1096 17.3942 14.7083C18.2562 13.6571 18.9605 12.4859 19.4848 11.2316C19.5384 11.081 19.6398 10.952 19.7736 10.8644C19.9074 10.7767 20.0661 10.7353 20.2257 10.7463H21.9278C22.4377 10.7463 22.5462 11.0018 22.4377 11.3658C21.8187 12.7523 21.0529 14.0684 20.1533 15.2916C19.9702 15.5716 19.8967 15.7175 20.1533 16.0453C20.3225 16.3008 20.9187 16.799 21.32 17.2726C21.9032 17.8544 22.3875 18.5275 22.7538 19.2653C22.8997 19.739 22.6558 19.9816 22.1705 19.9816Z" fill="#3B3C40"/>
</svg>
