<svg width="24" height="25" viewBox="0 0 24 25" fill="none" xmlns="http://www.w3.org/2000/svg">
<path d="M11.7789 12.0344C12.9514 12.0344 13.9666 11.6138 14.7962 10.7841C15.6257 9.95463 16.0462 8.93964 16.0462 7.76706C16.0462 6.59484 15.6257 5.57974 14.796 4.74991C13.9663 3.9205 12.9512 3.5 11.7789 3.5C10.6063 3.5 9.59129 3.9205 8.76177 4.75005C7.93226 5.5796 7.51158 6.59473 7.51158 7.76706C7.51158 8.93964 7.93222 9.95477 8.76191 10.7843C9.5916 11.6137 10.6067 12.0344 11.7789 12.0344ZM19.2456 17.1235C19.2216 16.7783 19.1732 16.4017 19.102 16.0041C19.0301 15.6034 18.9375 15.2246 18.8267 14.8785C18.7122 14.5207 18.5565 14.1674 18.364 13.8287C18.1642 13.4773 17.9296 13.1713 17.6662 12.9195C17.3909 12.656 17.0538 12.4442 16.6639 12.2897C16.2755 12.136 15.8449 12.0582 15.3844 12.0582C15.2036 12.0582 15.0287 12.1324 14.6909 12.3523C14.4508 12.5087 14.2099 12.6639 13.9684 12.8181C13.7363 12.966 13.4219 13.1045 13.0335 13.23C12.6547 13.3526 12.27 13.4147 11.8903 13.4147C11.5106 13.4147 11.126 13.3526 10.7467 13.23C10.3588 13.1046 10.0444 12.9661 9.81258 12.8182C9.54371 12.6464 9.30045 12.4896 9.08943 12.3521C8.75205 12.1322 8.57699 12.058 8.39615 12.058C7.93548 12.058 7.50511 12.136 7.11676 12.2898C6.72719 12.4441 6.38994 12.6559 6.11433 12.9196C5.85117 13.1715 5.61638 13.4774 5.41686 13.8287C5.22453 14.1673 5.06882 14.5205 4.95417 14.8786C4.84344 15.2248 4.75088 15.6034 4.67897 16.0041C4.60772 16.4012 4.55935 16.7779 4.5354 17.1239C4.51158 17.4721 4.49978 17.8211 4.5 18.1701C4.5 19.095 4.79399 19.8437 5.37374 20.3958C5.94633 20.9407 6.70394 21.2171 7.62525 21.2171H16.1561C17.0774 21.2171 17.8348 20.9409 18.4075 20.3959C18.9874 19.8441 19.2814 19.0953 19.2814 18.17C19.2812 17.813 19.2692 17.4609 19.2456 17.1235Z" fill="#3B3C40"/>
</svg>
